<?xml version="1.0" encoding="UTF-8" standalone="no"?>
<!DOCTYPE svg PUBLIC "-//W3C//DTD SVG 1.1//EN" "http://www.w3.org/Graphics/SVG/1.1/DTD/svg11.dtd">
<!-- Generated by graphviz version 2.40.1 (20161225.0304)
 -->
<!-- Title: G Pages: 1 -->
<svg width="132pt" height="257pt" viewBox="0.00 0.00 132.50 256.60" xmlns="http://www.w3.org/2000/svg" xmlns:xlink="http://www.w3.org/1999/xlink">
<g id="graph0" class="graph" transform="scale(1 1) rotate(0) translate(4 252.6)">
<title>G</title>
<polygon fill="#ffffff" stroke="transparent" points="-4,4 -4,-252.6 128.4972,-252.6 128.4972,4 -4,4"/>
<!-- REQUEST -->
<g id="node1" class="node">
<title>REQUEST</title>
<path fill="none" stroke="#000000" d="M15.5063,-198.5C15.5063,-198.5 108.9909,-198.5 108.9909,-198.5 114.9909,-198.5 120.9909,-204.5 120.9909,-210.5 120.9909,-210.5 120.9909,-236.1 120.9909,-236.1 120.9909,-242.1 114.9909,-248.1 108.9909,-248.1 108.9909,-248.1 15.5063,-248.1 15.5063,-248.1 9.5063,-248.1 3.5063,-242.1 3.5063,-236.1 3.5063,-236.1 3.5063,-210.5 3.5063,-210.5 3.5063,-204.5 9.5063,-198.5 15.5063,-198.5"/>
<text text-anchor="middle" x="62.2486" y="-231.5" font-family="Times,serif" font-size="14.00" fill="#000000">HTTP REQUEST</text>
<polyline fill="none" stroke="#000000" points="3.5063,-223.3 120.9909,-223.3 "/>
<text text-anchor="middle" x="61.8892" y="-206.7" font-family="Times,serif" font-size="14.00" fill="#000000">OUT</text>
</g>
<!-- PROCESS -->
<g id="node2" class="node">
<title>PROCESS</title>
<path fill="none" stroke="#000000" d="M35.9085,-87.1C35.9085,-87.1 88.5887,-87.1 88.5887,-87.1 94.5887,-87.1 100.5887,-93.1 100.5887,-99.1 100.5887,-99.1 100.5887,-149.5 100.5887,-149.5 100.5887,-155.5 94.5887,-161.5 88.5887,-161.5 88.5887,-161.5 35.9085,-161.5 35.9085,-161.5 29.9085,-161.5 23.9085,-155.5 23.9085,-149.5 23.9085,-149.5 23.9085,-99.1 23.9085,-99.1 23.9085,-93.1 29.9085,-87.1 35.9085,-87.1"/>
<text text-anchor="middle" x="61.7921" y="-144.9" font-family="Times,serif" font-size="14.00" fill="#000000">IN</text>
<polyline fill="none" stroke="#000000" points="23.9085,-136.7 100.5887,-136.7 "/>
<text text-anchor="middle" x="62.2486" y="-120.1" font-family="Times,serif" font-size="14.00" fill="#000000">PROCESS</text>
<polyline fill="none" stroke="#000000" points="23.9085,-111.9 100.5887,-111.9 "/>
<text text-anchor="middle" x="61.7914" y="-95.3" font-family="Times,serif" font-size="14.00" fill="#000000">OUT</text>
</g>
<!-- REQUEST&#45;&gt;PROCESS -->
<g id="edge1" class="edge">
<title>REQUEST:OUT-&gt;PROCESS:IN</title>
<path fill="none" stroke="#000000" d="M62.2486,-198.3181C62.2486,-190.2442 62.2486,-181.0059 62.2486,-171.8563"/>
<polygon fill="#000000" stroke="#000000" points="65.7487,-171.6306 62.2486,-161.6307 58.7487,-171.6307 65.7487,-171.6306"/>
</g>
<!-- RESPONSE -->
<g id="node3" class="node">
<title>RESPONSE</title>
<path fill="none" stroke="#000000" d="M12,-.5C12,-.5 112.4972,-.5 112.4972,-.5 118.4972,-.5 124.4972,-6.5 124.4972,-12.5 124.4972,-12.5 124.4972,-38.1 124.4972,-38.1 124.4972,-44.1 118.4972,-50.1 112.4972,-50.1 112.4972,-50.1 12,-50.1 12,-50.1 6,-50.1 0,-44.1 0,-38.1 0,-38.1 0,-12.5 0,-12.5 0,-6.5 6,-.5 12,-.5"/>
<text text-anchor="middle" x="61.8836" y="-33.5" font-family="Times,serif" font-size="14.00" fill="#000000">IN</text>
<polyline fill="none" stroke="#000000" points="0,-25.3 124.4972,-25.3 "/>
<text text-anchor="middle" x="62.2486" y="-8.7" font-family="Times,serif" font-size="14.00" fill="#000000">HTTP RESPONSE</text>
</g>
<!-- PROCESS&#45;&gt;RESPONSE -->
<g id="edge2" class="edge">
<title>PROCESS:OUT-&gt;RESPONSE:IN</title>
<path fill="none" stroke="#000000" d="M62.2486,-86.8723C62.2486,-78.1525 62.2486,-68.9003 62.2486,-60.2905"/>
<polygon fill="#000000" stroke="#000000" points="65.7487,-60.186 62.2486,-50.186 58.7487,-60.1861 65.7487,-60.186"/>
</g>
</g>
</svg>